<?xml version="1.0" encoding="utf-8"?>
<!-- Generator: Adobe Illustrator 15.0.0, SVG Export Plug-In . SVG Version: 6.00 Build 0)  -->
<!DOCTYPE svg PUBLIC "-//W3C//DTD SVG 1.1//EN" "http://www.w3.org/Graphics/SVG/1.1/DTD/svg11.dtd">
<svg version="1.1" id="Capa_1" xmlns="http://www.w3.org/2000/svg" xmlns:xlink="http://www.w3.org/1999/xlink" x="0px" y="0px"
	 width="33.189px" height="30.058px" viewBox="0 0 33.189 30.058" enable-background="new 0 0 33.189 30.058" xml:space="preserve">
<g>
	<defs>
		<rect id="SVGID_1_" x="250" y="27.571" width="51.168" height="75.429"/>
	</defs>
	<clipPath id="SVGID_2_">
		<use xlink:href="#SVGID_1_"  overflow="visible"/>
	</clipPath>
	<path clip-path="url(#SVGID_2_)" fill="#1A171B" d="M291.926,35.021c0.659,0.153,0.932,0.693,1.95,0.487
		c0.409-0.565,0.644-1.307,0.487-2.438C293.206,33.375,292.094,33.727,291.926,35.021 M295.339,28.195
		c0.179,0.829-0.38,0.92-0.976,0.975c2.336,0.57,1.976,3.354,2.926,7.313c2.381-0.193,2.408-1.987,3.412-2.438
		c1.992,7.857-2.539,17.517-10.725,17.063c-4.478-0.247-4.949-3.619-8.775-5.362c-1.184,0.594,0.997,1.881,0.974,2.925
		c-8.308,5.18-19.073,7.901-25.838,14.625h-4.387c-0.519-1.431-1.944-1.956-1.95-3.899c12.2-10.552,25.829-19.673,38.514-29.738
		c0.09-0.415-0.19-0.46-0.488-0.488C290.729,28.211,293.534,26.714,295.339,28.195"/>
	<path clip-path="url(#SVGID_2_)" fill="#1A171B" d="M265.014,103c-0.365-8.592-0.7-17.256-0.875-26.053
		c-0.116-5.777,0.604-13.479-5.363-10.727C257.9,76.442,258.95,91.625,259.723,103H265.014z"/>
</g>
<g>
	<path fill="#FFFFFF" d="M23.247,1.589c2.608,0,4.68,0.758,6.214,2.273c1.534,1.515,2.302,3.596,2.302,6.243
		c0,1.649-0.537,3.337-1.611,5.063c-0.652,1.035-1.419,1.976-2.302,2.819l-9.782,9.725c-0.422,0.383-0.921,0.575-1.496,0.575
		s-1.074-0.192-1.496-0.575l-9.782-9.725c-0.729-0.69-1.419-1.516-2.072-2.475c-1.228-1.841-1.841-3.645-1.841-5.408
		c0-2.647,0.768-4.729,2.302-6.243c1.534-1.516,3.606-2.273,6.214-2.273c2.148,0,4.373,1.055,6.675,3.165
		C18.874,2.644,21.098,1.589,23.247,1.589z M26.526,16.723c0.998-0.959,1.784-1.976,2.359-3.05c0.69-1.267,1.036-2.455,1.036-3.567
		c0-2.11-0.585-3.75-1.755-4.92c-1.17-1.17-2.81-1.755-4.92-1.755c-1.228,0-2.532,0.479-3.913,1.438
		c-0.768,0.537-1.63,1.285-2.589,2.244l-0.173,0.172c-1.151-1.15-2.148-2.014-2.992-2.589c-1.304-0.844-2.532-1.266-3.683-1.266
		c-2.11,0-3.75,0.585-4.919,1.755c-1.17,1.17-1.755,2.81-1.755,4.92c0,1.112,0.345,2.32,1.036,3.625
		c0.614,1.112,1.381,2.09,2.302,2.935l9.839,9.724c0.115,0.115,0.23,0.115,0.346,0L26.526,16.723z"/>
</g>
</svg>
