<?xml version="1.0" encoding="utf-8"?>
<!-- Generator: Adobe Illustrator 15.0.0, SVG Export Plug-In . SVG Version: 6.00 Build 0)  -->
<!DOCTYPE svg PUBLIC "-//W3C//DTD SVG 1.1//EN" "http://www.w3.org/Graphics/SVG/1.1/DTD/svg11.dtd">
<svg version="1.1" id="Capa_1" xmlns="http://www.w3.org/2000/svg" xmlns:xlink="http://www.w3.org/1999/xlink" x="0px" y="0px"
	 width="102.667px" height="68px" viewBox="0 0 102.667 68" enable-background="new 0 0 102.667 68" xml:space="preserve">
<g>
	<defs>
		<rect id="SVGID_1_" y="0.001" width="101.596" height="67.985"/>
	</defs>
	<clipPath id="SVGID_2_">
		<use xlink:href="#SVGID_1_"  overflow="visible"/>
	</clipPath>
	<path clip-path="url(#SVGID_2_)" fill="#FFFFFF" d="M92.312,15.59c-0.759,0-1.382-0.278-1.869-0.832
		c-0.487-0.556-0.729-1.329-0.729-2.321c0-0.994,0.242-1.762,0.729-2.307c0.487-0.545,1.109-0.817,1.869-0.817
		c0.759,0,1.382,0.272,1.869,0.817c0.486,0.545,0.729,1.313,0.729,2.307c0,0.992-0.244,1.765-0.729,2.321
		C93.694,15.312,93.071,15.59,92.312,15.59 M92.312,20.729c1.791,0,3.391-0.355,4.802-1.065c1.411-0.711,2.51-1.693,3.299-2.949
		c0.789-1.256,1.183-2.681,1.183-4.277c0-1.596-0.394-3.022-1.183-4.277c-0.789-1.256-1.888-2.234-3.299-2.935
		c-1.412-0.7-3.012-1.051-4.802-1.051c-1.771,0-3.363,0.351-4.773,1.051c-1.412,0.701-2.516,1.679-3.314,2.935
		c-0.798,1.255-1.197,2.681-1.197,4.277c0,1.596,0.399,3.021,1.197,4.277c0.798,1.255,1.902,2.238,3.314,2.949
		C88.949,20.374,90.541,20.729,92.312,20.729 M73.628,20.729c1.771,0,3.279-0.244,4.525-0.73c1.245-0.487,2.179-1.138,2.802-1.957
		c0.623-0.817,0.934-1.722,0.934-2.715c0-1.304-0.346-2.306-1.036-3.007c-0.691-0.701-1.489-1.177-2.394-1.431
		c-0.905-0.252-2.01-0.457-3.314-0.612c-0.836-0.098-1.449-0.199-1.838-0.307c-0.39-0.107-0.583-0.288-0.583-0.541
		c0-0.505,0.719-0.759,2.159-0.759c1.674,0,3.212,0.389,4.613,1.168l1.81-4.35c-0.817-0.428-1.806-0.754-2.964-0.978
		c-1.157-0.224-2.34-0.336-3.546-0.336c-1.732,0-3.217,0.244-4.452,0.73c-1.236,0.487-2.166,1.139-2.789,1.956
		c-0.623,0.817-0.934,1.742-0.934,2.774c0,1.304,0.344,2.306,1.036,3.005c0.69,0.702,1.494,1.174,2.408,1.417
		c0.916,0.244,2.023,0.443,3.328,0.598c0.856,0.099,1.474,0.194,1.854,0.292c0.379,0.098,0.569,0.272,0.569,0.525
		c0,0.254-0.152,0.443-0.453,0.57c-0.302,0.127-0.831,0.19-1.591,0.19c-0.954,0-1.937-0.126-2.948-0.379
		c-1.012-0.252-1.888-0.604-2.627-1.052l-1.811,4.351c0.818,0.467,1.888,0.847,3.212,1.139
		C70.922,20.583,72.266,20.729,73.628,20.729 M64.14,15.299c-0.428,0.292-0.924,0.438-1.489,0.438c-0.409,0-0.74-0.136-0.993-0.409
		c-0.253-0.272-0.379-0.651-0.379-1.139v-4.028h3.27V5.343h-3.27V0.876h-6.598v13.372c0,2.16,0.603,3.78,1.811,4.86
		c1.206,1.08,2.929,1.621,5.167,1.621c1.712,0,3.065-0.283,4.058-0.847L64.14,15.299z M47.704,6.19V4.467h-6.277v15.969h6.599
		v-7.094c0-2.295,1.127-3.445,3.386-3.445c0.447,0,0.935,0.039,1.46,0.117V4.175C50.593,4.175,48.872,4.847,47.704,6.19
		 M30.712,8.671c0.584,0,1.085,0.15,1.504,0.452c0.419,0.302,0.715,0.707,0.891,1.211l-5.11,0.994
		c0.098-0.876,0.385-1.538,0.862-1.986C29.335,8.896,29.954,8.671,30.712,8.671 M31.384,15.854c-1.479,0-2.462-0.467-2.948-1.401
		l10.917-2.102c0-1.713-0.39-3.187-1.167-4.423c-0.779-1.236-1.829-2.17-3.153-2.803c-1.324-0.632-2.772-0.949-4.349-0.949
		c-1.733,0-3.295,0.351-4.686,1.051c-1.392,0.701-2.486,1.679-3.284,2.935c-0.798,1.255-1.197,2.681-1.197,4.277
		c0,1.576,0.399,2.997,1.197,4.262c0.798,1.265,1.926,2.252,3.386,2.963c1.46,0.71,3.153,1.065,5.079,1.065
		c3.056,0,5.382-0.857,6.979-2.569l-3.445-3.474c-0.565,0.428-1.085,0.73-1.562,0.905C32.672,15.765,32.084,15.854,31.384,15.854
		 M10.919,15.62H6.773v-3.211h4.146c1.518,0,2.277,0.536,2.277,1.605C13.196,15.084,12.437,15.62,10.919,15.62 M9.984,4.817
		c1.499,0,2.248,0.506,2.248,1.519c0,1.012-0.749,1.518-2.248,1.518H6.773V4.817H9.984z M16.349,9.751
		c0.935-0.467,1.639-1.08,2.117-1.838c0.477-0.759,0.715-1.616,0.715-2.569c0-1.615-0.696-2.909-2.086-3.883
		C15.701,0.487,13.644,0,10.919,0H0v20.437h11.502c2.803,0,4.944-0.491,6.423-1.474c1.479-0.982,2.218-2.37,2.218-4.161
		c0-1.207-0.331-2.238-0.992-3.094C18.49,10.851,17.556,10.2,16.349,9.751"/>
	<path clip-path="url(#SVGID_2_)" fill="#FFFFFF" d="M96.614,44.25c-0.016-0.125-0.07-0.265-0.163-0.421h-0.703
		c-0.094,0-0.296,0.117-0.609,0.351c-0.312,0.234-0.679,0.5-1.1,0.797c-0.422,0.297-0.86,0.602-1.312,0.913
		c-0.453,0.312-0.867,0.562-1.241,0.75c-0.281,0.157-0.531,0.274-0.75,0.353c-0.219,0.077-0.438,0.132-0.656,0.163
		c-0.219,0.063-0.444,0.118-0.679,0.164c-0.234,0.048-0.43,0.071-0.585,0.071c-0.5,0-0.992-0.124-1.476-0.375
		c-0.485-0.25-0.938-0.569-1.359-0.96c-0.422-0.39-0.79-0.835-1.101-1.334c-0.312-0.5-0.546-1.015-0.703-1.546
		c-0.125-0.344-0.188-0.711-0.188-1.101v-0.82c0-0.094,0.015-0.329,0.047-0.703c0.032-0.375,0.07-0.788,0.118-1.241
		c0.046-0.453,0.109-0.898,0.188-1.335c0.077-0.437,0.178-0.78,0.304-1.03c0.281-0.75,0.609-1.397,0.983-1.944
		s0.78-1.038,1.218-1.476c0.438-0.437,0.898-0.851,1.382-1.242c0.484-0.389,0.961-0.803,1.429-1.241
		c0.218-0.219,0.359-0.453,0.422-0.703c0.063-0.25,0.094-0.452,0.094-0.609c0-0.53-0.227-0.897-0.68-1.1
		c-0.453-0.204-0.944-0.305-1.476-0.305c-0.156,0-0.281,0.008-0.375,0.023c-0.094,0.017-0.172,0.024-0.234,0.024
		c-0.344,0.156-0.711,0.36-1.102,0.609c-0.39,0.25-0.766,0.523-1.124,0.82c-0.359,0.296-0.688,0.593-0.984,0.891
		c-0.297,0.296-0.539,0.554-0.727,0.772c-0.312,0.375-0.561,0.828-0.749,1.358c-0.188,0.531-0.36,0.984-0.516,1.359
		c-0.093,0.218-0.171,0.499-0.234,0.843c-0.062,0.344-0.14,0.695-0.234,1.054s-0.227,0.703-0.399,1.03
		c-0.172,0.328-0.429,0.602-0.772,0.82l-0.188-0.329c0.437-1.686,0.844-3.309,1.219-4.872c0.374-1.562,0.772-3.155,1.195-4.779
		c0.421-1.624,0.882-3.318,1.382-5.084c0.499-1.764,1.108-3.708,1.827-5.833c0.062-0.157,0.109-0.382,0.141-0.68
		c0.031-0.296,0.062-0.554,0.094-0.772c-0.032-0.094-0.126-0.188-0.282-0.281c-0.156-0.094-0.328-0.171-0.515-0.233
		c-0.188-0.063-0.368-0.118-0.54-0.165c-0.171-0.047-0.289-0.07-0.351-0.07c-0.188,0-0.469,0.086-0.843,0.257
		c-0.375,0.172-0.594,0.431-0.656,0.774c-0.063,0.157-0.148,0.321-0.257,0.491c-0.11,0.173-0.181,0.336-0.211,0.492
		c-0.562,2.438-1.171,4.819-1.827,7.146c-0.655,2.326-1.25,4.833-1.781,7.519c-0.188,0.907-0.421,1.906-0.703,2.999
		c-0.281,1.094-0.554,2.257-0.82,3.491c-0.265,1.234-0.492,2.507-0.679,3.818c-0.188,1.312-0.282,2.64-0.282,3.982
		c0,0.093-0.015,0.273-0.046,0.538c-0.032,0.266-0.047,0.571-0.047,0.914c0,0.345,0.015,0.688,0.047,1.031
		c0.031,0.345,0.109,0.641,0.234,0.891c0.188,0.375,0.367,0.632,0.539,0.773c0.171,0.14,0.343,0.233,0.516,0.281
		c0.17,0.047,0.335,0.055,0.492,0.024c0.155-0.032,0.327-0.048,0.515-0.048c0.218,0,0.438-0.039,0.656-0.117
		c0.218-0.078,0.405-0.336,0.562-0.773c0.156-0.437,0.227-0.905,0.211-1.406c-0.016-0.499-0.008-0.967,0.023-1.405
		c0-0.187,0.006-0.438,0.023-0.75c0.016-0.312,0.031-0.639,0.047-0.983c0.015-0.344,0.03-0.657,0.046-0.937
		c0.016-0.281,0.055-0.5,0.118-0.656c0.562,0.906,1.069,1.757,1.523,2.554c0.451,0.795,0.943,1.506,1.476,2.131
		c0.531,0.625,1.131,1.132,1.803,1.522c0.672,0.39,1.507,0.601,2.507,0.633c0.937,0.03,1.858-0.118,2.765-0.446
		c0.904-0.328,1.811-0.757,2.717-1.289c0.218-0.123,0.398-0.296,0.539-0.515c0.14-0.218,0.288-0.389,0.445-0.516
		c0.468-0.312,0.991-0.679,1.569-1.101c0.577-0.42,0.867-0.913,0.867-1.476C96.638,44.517,96.63,44.375,96.614,44.25 M66.608,34.435
		c-0.032,0.329-0.078,0.696-0.141,1.102s-0.14,0.812-0.234,1.218c-0.094,0.407-0.203,0.749-0.327,1.03
		c-0.282,0.532-0.673,1.242-1.172,2.133c-0.5,0.89-1.077,1.811-1.733,2.764c-0.657,0.953-1.367,1.858-2.132,2.717
		c-0.766,0.859-1.555,1.523-2.366,1.991l-0.047-0.796c0-0.406,0.171-1.078,0.516-2.015c0.343-0.936,0.742-1.904,1.195-2.904
		c0.453-1,0.89-1.921,1.312-2.765c0.421-0.842,0.695-1.358,0.82-1.545c0.218-0.343,0.491-0.75,0.819-1.218
		c0.329-0.468,0.664-0.945,1.008-1.428c0.343-0.485,0.694-0.953,1.054-1.407c0.359-0.452,0.663-0.834,0.915-1.147
		c0,0.281,0.094,0.585,0.28,0.913c0.188,0.328,0.281,0.586,0.281,0.773C66.654,33.912,66.639,34.107,66.608,34.435 M76.212,44.017
		h-0.281c-0.033,0-0.079,0.015-0.141,0.046c-1,0.719-2.038,1.328-3.116,1.827c-1.078,0.5-2.07,0.843-2.975,1.031
		c-0.156-0.157-0.266-0.282-0.329-0.375c-0.062-0.094-0.109-0.171-0.14-0.234c-0.062-0.188-0.117-0.422-0.164-0.703
		s-0.093-0.562-0.14-0.843c-0.046-0.282-0.087-0.531-0.117-0.75c-0.032-0.218-0.048-0.375-0.048-0.469
		c0-0.155,0.04-0.398,0.118-0.727c0.077-0.328,0.117-0.632,0.117-0.914c0-0.687,0.008-1.318,0.023-1.897
		c0.015-0.578,0.071-1.171,0.165-1.781c0.094-0.608,0.25-1.272,0.468-1.991c0.219-0.717,0.515-1.546,0.891-2.483
		c0.062-0.156,0.125-0.367,0.187-0.632c0.062-0.265,0.118-0.54,0.164-0.821c0.047-0.281,0.086-0.53,0.118-0.749
		c0.031-0.219,0.046-0.375,0.046-0.469c0-0.438-0.094-0.781-0.281-1.031c-0.25-0.312-0.602-0.492-1.055-0.539
		c-0.453-0.047-0.742-0.101-0.867-0.164c-0.281-0.188-0.492-0.351-0.633-0.492c-0.14-0.14-0.28-0.257-0.421-0.351
		c-0.14-0.094-0.304-0.165-0.491-0.21c-0.188-0.048-0.453-0.07-0.797-0.07c-0.188,0-0.438,0.022-0.75,0.07
		c-0.312,0.046-0.546,0.132-0.702,0.257c-0.407,0.345-0.921,0.946-1.545,1.804c-0.625,0.86-1.29,1.867-1.992,3.021
		c-0.703,1.157-1.406,2.39-2.108,3.702c-0.703,1.311-1.328,2.608-1.874,3.888c-0.547,1.281-0.992,2.483-1.335,3.607
		c-0.344,1.125-0.5,2.062-0.469,2.812c0,0.281,0.094,0.579,0.281,0.89c0.188,0.313,0.429,0.602,0.727,0.868
		c0.296,0.264,0.639,0.475,1.03,0.632c0.389,0.155,0.788,0.235,1.195,0.235c0.75,0,1.444-0.243,2.085-0.727
		c0.639-0.484,1.242-1.078,1.803-1.781c0.562-0.702,1.093-1.445,1.593-2.225c0.5-0.78,0.983-1.452,1.453-2.014
		c0.093,0.719,0.141,1.398,0.141,2.038c0,0.641,0.141,1.258,0.421,1.851c0.125,0.344,0.336,0.649,0.632,0.914
		c0.297,0.265,0.616,0.507,0.961,0.725c0.343,0.219,0.702,0.384,1.078,0.493c0.375,0.11,0.703,0.165,0.984,0.165
		c0.218,0,0.476-0.017,0.772-0.047c0.297-0.031,0.57-0.062,0.82-0.094c0.062,0,0.375-0.148,0.937-0.445
		c0.562-0.297,1.171-0.671,1.828-1.125c0.656-0.453,1.249-0.953,1.78-1.5c0.53-0.545,0.797-1.069,0.797-1.569
		C77.056,44.235,76.774,44.017,76.212,44.017 M57.659,43.735l-0.656-0.047c-0.251,0.188-0.492,0.375-0.726,0.562
		c-0.235,0.188-0.399,0.345-0.493,0.469c-0.094,0.093-0.304,0.304-0.633,0.631c-0.328,0.328-0.725,0.665-1.194,1.008
		c-0.469,0.344-0.968,0.648-1.5,0.914c-0.532,0.265-1.047,0.382-1.546,0.351c-0.625-0.031-1.108-0.312-1.452-0.844
		c-0.344-0.53-0.586-1.139-0.726-1.828c-0.14-0.686-0.211-1.358-0.211-2.014c0-0.656,0.016-1.14,0.047-1.453
		c0.031-0.438,0.101-0.976,0.21-1.616c0.109-0.64,0.234-1.312,0.375-2.015c0.141-0.703,0.296-1.39,0.468-2.061
		c0.171-0.672,0.352-1.257,0.539-1.757c0.094-0.344,0.241-0.757,0.445-1.242c0.202-0.484,0.406-0.96,0.609-1.428
		c0.203-0.469,0.375-0.875,0.515-1.219c0.14-0.343,0.211-0.546,0.211-0.609c0.062-0.281-0.072-0.545-0.399-0.796
		c-0.328-0.25-0.695-0.39-1.101-0.422c-0.187,0-0.461,0.023-0.82,0.071c-0.359,0.045-0.585,0.148-0.679,0.304
		c-0.438,0.812-0.843,1.726-1.218,2.741c-0.375,1.016-0.719,2.085-1.031,3.209c-0.312,1.124-0.57,2.248-0.772,3.373
		c-0.204,1.125-0.336,2.187-0.399,3.186c-0.031,0.5-0.039,1.047-0.022,1.64c0.014,0.593,0.053,1.171,0.116,1.733
		c0.063,0.563,0.164,1.086,0.306,1.569c0.14,0.485,0.304,0.883,0.491,1.195c0.657,1.063,1.375,1.781,2.156,2.155
		c0.78,0.375,1.437,0.562,1.968,0.562c0.406,0,0.75-0.046,1.03-0.14c1.093-0.312,1.983-0.71,2.671-1.195
		c0.686-0.483,1.342-1.101,1.967-1.851c0.156-0.187,0.281-0.397,0.375-0.633c0.094-0.233,0.171-0.413,0.234-0.539
		c0.156-0.218,0.32-0.414,0.492-0.585c0.171-0.171,0.257-0.335,0.257-0.491L57.659,43.735z M54.333,22.911
		c-0.406-0.142-0.89-0.228-1.452-0.258c-0.157-0.031-0.415-0.04-0.774-0.023c-0.359,0.016-0.664,0.086-0.914,0.21
		c-0.156,0.719,0,1.343,0.469,1.874c0.469,0.532,0.984,0.813,1.545,0.844c0.281,0,0.61-0.07,0.984-0.211
		c0.375-0.141,0.592-0.507,0.656-1.101C54.911,23.496,54.739,23.05,54.333,22.911 M34.938,34.435
		c-0.032,0.329-0.079,0.696-0.141,1.102c-0.063,0.406-0.141,0.812-0.234,1.218c-0.094,0.407-0.204,0.749-0.328,1.03
		c-0.281,0.532-0.672,1.242-1.171,2.133c-0.5,0.89-1.079,1.811-1.733,2.764c-0.656,0.953-1.368,1.858-2.131,2.717
		c-0.766,0.859-1.554,1.523-2.366,1.991l-0.047-0.796c0-0.406,0.171-1.078,0.516-2.015c0.344-0.936,0.741-1.904,1.195-2.904
		c0.452-1,0.89-1.921,1.312-2.765c0.422-0.842,0.694-1.358,0.821-1.545c0.217-0.343,0.491-0.75,0.819-1.218s0.663-0.945,1.007-1.428
		c0.343-0.485,0.695-0.953,1.055-1.407c0.358-0.452,0.663-0.834,0.914-1.147c0,0.281,0.093,0.585,0.281,0.913
		c0.187,0.328,0.281,0.586,0.281,0.773C34.985,33.912,34.969,34.107,34.938,34.435 M44.542,44.017H44.26
		c-0.03,0-0.078,0.015-0.14,0.046c-1,0.719-2.038,1.328-3.115,1.827c-1.078,0.5-2.069,0.843-2.975,1.031
		c-0.156-0.157-0.265-0.282-0.328-0.375c-0.063-0.094-0.11-0.171-0.141-0.234c-0.063-0.188-0.116-0.422-0.164-0.703
		c-0.046-0.281-0.094-0.562-0.141-0.843c-0.047-0.282-0.086-0.531-0.117-0.75c-0.032-0.218-0.046-0.375-0.046-0.469
		c0-0.155,0.038-0.398,0.116-0.727s0.117-0.632,0.117-0.914c0-0.687,0.008-1.318,0.024-1.897c0.016-0.578,0.07-1.171,0.164-1.781
		c0.094-0.608,0.25-1.272,0.469-1.991c0.218-0.717,0.515-1.546,0.89-2.483c0.062-0.156,0.125-0.367,0.187-0.632
		c0.063-0.265,0.118-0.54,0.165-0.821c0.047-0.281,0.085-0.53,0.117-0.749c0.031-0.219,0.047-0.375,0.047-0.469
		c0-0.438-0.094-0.781-0.281-1.031c-0.25-0.312-0.602-0.492-1.054-0.539c-0.453-0.047-0.743-0.101-0.867-0.164
		c-0.282-0.188-0.492-0.351-0.632-0.492c-0.141-0.14-0.281-0.257-0.422-0.351c-0.141-0.094-0.304-0.165-0.492-0.21
		c-0.188-0.048-0.454-0.07-0.796-0.07c-0.188,0-0.438,0.022-0.75,0.07c-0.313,0.046-0.547,0.132-0.703,0.257
		c-0.407,0.345-0.922,0.946-1.546,1.804c-0.625,0.86-1.288,1.867-1.991,3.021c-0.703,1.157-1.405,2.39-2.108,3.702
		c-0.702,1.311-1.328,2.608-1.875,3.888c-0.546,1.281-0.992,2.483-1.335,3.607c-0.344,1.125-0.499,2.062-0.469,2.812
		c0,0.281,0.093,0.579,0.281,0.89c0.188,0.313,0.429,0.602,0.727,0.868c0.296,0.264,0.64,0.475,1.03,0.632
		c0.391,0.155,0.789,0.235,1.195,0.235c0.75,0,1.444-0.243,2.084-0.727c0.641-0.484,1.243-1.078,1.805-1.781
		c0.561-0.702,1.092-1.445,1.592-2.225c0.5-0.78,0.983-1.452,1.452-2.014c0.094,0.719,0.14,1.398,0.14,2.038
		c0,0.641,0.141,1.258,0.422,1.851c0.125,0.344,0.335,0.649,0.632,0.914s0.616,0.507,0.961,0.725
		c0.343,0.219,0.703,0.384,1.077,0.493c0.375,0.11,0.703,0.165,0.984,0.165c0.219,0,0.476-0.017,0.773-0.047
		c0.297-0.031,0.57-0.062,0.82-0.094c0.062,0,0.375-0.148,0.938-0.445c0.562-0.297,1.171-0.671,1.827-1.125
		c0.655-0.453,1.249-0.953,1.78-1.5c0.531-0.545,0.796-1.069,0.796-1.569C45.385,44.235,45.104,44.017,44.542,44.017 M19.688,32.397
		c-0.047,0.843-0.149,1.53-0.305,2.062c-0.125,0.312-0.281,0.734-0.468,1.265c-0.188,0.532-0.359,0.953-0.515,1.265
		c-0.438,0.813-0.937,1.687-1.499,2.624c-0.562,0.937-1.165,1.85-1.804,2.741c-0.641,0.89-1.319,1.703-2.038,2.437
		c-0.719,0.733-1.469,1.288-2.249,1.663c0.125-1.468,0.507-3.022,1.147-4.661c0.641-1.641,1.39-3.202,2.25-4.686
		c0.858-1.483,1.787-2.818,2.788-4.006c0.999-1.186,1.951-2.092,2.858-2.717C19.788,30.883,19.734,31.555,19.688,32.397
		 M24.325,29.329c-0.109-0.358-0.397-0.617-0.866-0.773c-0.188-0.093-0.391-0.125-0.609-0.093c-0.219,0.03-0.407,0.016-0.562-0.047
		c-0.157-0.03-0.274-0.094-0.352-0.187s-0.164-0.188-0.257-0.281c-0.094-0.094-0.227-0.179-0.398-0.258
		c-0.172-0.078-0.43-0.117-0.774-0.117c-0.218,0-0.475,0.024-0.772,0.071c-0.297,0.046-0.523,0.101-0.679,0.163
		c-0.469,0.156-1,0.477-1.593,0.961c-0.593,0.484-1.172,1.023-1.733,1.616c-0.562,0.594-1.062,1.172-1.5,1.733
		c-0.437,0.562-0.749,1-0.937,1.312c-0.093,0.187-0.241,0.438-0.445,0.75c-0.204,0.312-0.414,0.624-0.632,0.937
		s-0.445,0.625-0.679,0.938c-0.234,0.312-0.415,0.562-0.54,0.749c-0.156,0.251-0.344,0.603-0.562,1.055
		c-0.218,0.453-0.429,0.937-0.632,1.453c-0.203,0.515-0.406,1.015-0.609,1.5c-0.203,0.483-0.367,0.898-0.492,1.241
		c-0.344,0.812-0.617,1.602-0.82,2.366c-0.203,0.766-0.304,1.601-0.304,2.507c0,0.812,0.241,1.46,0.726,1.944
		c0.484,0.484,1.21,0.726,2.179,0.726c0.749,0,1.553-0.312,2.413-0.937c0.858-0.625,1.686-1.367,2.482-2.226
		c0.797-0.858,1.523-1.717,2.18-2.577c0.655-0.858,1.155-1.522,1.499-1.99l-0.329,7.262c-0.438,3.248-1.03,6.09-1.78,8.526
		c-0.75,2.436-1.67,4.232-2.764,5.388c-0.593,0.625-1.288,1.164-2.085,1.617c-0.796,0.453-1.648,0.633-2.553,0.539
		c-0.562-0.063-1.03-0.344-1.406-0.844c-0.374-0.5-0.686-1.046-0.937-1.64c-0.249-0.594-0.453-1.124-0.609-1.593
		c-0.155-0.469-0.328-0.703-0.516-0.703c-0.218,0-0.405,0.094-0.562,0.282c-0.156,0.186-0.282,0.413-0.375,0.678
		c-0.094,0.266-0.156,0.539-0.187,0.82c-0.031,0.281-0.047,0.531-0.047,0.749c0,0.218,0.055,0.531,0.164,0.938
		c0.11,0.405,0.265,0.827,0.469,1.265c0.204,0.437,0.445,0.85,0.726,1.241c0.281,0.391,0.594,0.664,0.937,0.82
		c0.5,0.343,1.023,0.569,1.569,0.679c0.547,0.109,1.109,0.133,1.687,0.07c0.579-0.063,1.164-0.188,1.757-0.374
		c0.594-0.188,1.171-0.407,1.734-0.656c0.78-0.531,1.483-1.14,2.108-1.828c0.625-0.687,1.164-1.382,1.616-2.084
		c0.453-0.703,0.827-1.358,1.125-1.967c0.296-0.61,0.523-1.101,0.679-1.476c0.406-1.156,0.773-2.491,1.101-4.006
		c0.328-1.515,0.61-3.092,0.844-4.732c0.234-1.64,0.421-3.256,0.562-4.85c0.141-1.593,0.241-3.044,0.304-4.356
		c0-0.53,0.015-1.14,0.047-1.827c0.03-0.687,0.07-1.39,0.117-2.108c0.047-0.718,0.109-1.413,0.188-2.084
		c0.078-0.672,0.195-1.243,0.352-1.711c0.094-0.281,0.218-0.616,0.375-1.007s0.32-0.773,0.492-1.148
		c0.171-0.375,0.32-0.71,0.445-1.008c0.125-0.297,0.188-0.476,0.188-0.539C24.489,29.978,24.435,29.688,24.325,29.329"/>
</g>
</svg>
