<?xml version="1.0" encoding="utf-8"?>
<!-- Generator: Adobe Illustrator 15.0.0, SVG Export Plug-In . SVG Version: 6.00 Build 0)  -->
<!DOCTYPE svg PUBLIC "-//W3C//DTD SVG 1.1//EN" "http://www.w3.org/Graphics/SVG/1.1/DTD/svg11.dtd">
<svg version="1.1" id="Capa_1" xmlns="http://www.w3.org/2000/svg" xmlns:xlink="http://www.w3.org/1999/xlink" x="0px" y="0px"
	 width="33.189px" height="30.058px" viewBox="0 0 33.189 30.058" enable-background="new 0 0 33.189 30.058" xml:space="preserve">
<g>
	<defs>
		<rect id="SVGID_1_" x="250" y="27.571" width="51.168" height="75.429"/>
	</defs>
	<clipPath id="SVGID_2_">
		<use xlink:href="#SVGID_1_"  overflow="visible"/>
	</clipPath>
	<path clip-path="url(#SVGID_2_)" fill="#1A171B" d="M291.926,35.021c0.659,0.153,0.932,0.693,1.95,0.487
		c0.409-0.565,0.644-1.307,0.487-2.438C293.206,33.375,292.094,33.727,291.926,35.021 M295.339,28.195
		c0.179,0.829-0.38,0.92-0.976,0.975c2.336,0.57,1.976,3.354,2.926,7.313c2.381-0.193,2.408-1.987,3.412-2.438
		c1.992,7.857-2.539,17.517-10.725,17.063c-4.478-0.247-4.949-3.619-8.775-5.362c-1.184,0.594,0.997,1.881,0.974,2.925
		c-8.308,5.18-19.073,7.901-25.838,14.625h-4.387c-0.519-1.431-1.944-1.956-1.95-3.899c12.2-10.552,25.829-19.673,38.514-29.738
		c0.09-0.415-0.19-0.46-0.488-0.488C290.729,28.211,293.534,26.714,295.339,28.195"/>
	<path clip-path="url(#SVGID_2_)" fill="#1A171B" d="M265.014,103c-0.365-8.592-0.7-17.256-0.875-26.053
		c-0.116-5.777,0.604-13.479-5.363-10.727C257.9,76.442,258.95,91.625,259.723,103H265.014z"/>
</g>
<path fill="#FFFFFF" d="M16.509,1.044c2.519,0,4.849,0.63,6.992,1.889c2.142,1.259,3.843,2.959,5.102,5.102
	c1.259,2.143,1.889,4.473,1.889,6.992s-0.63,4.849-1.889,6.992c-1.259,2.142-2.96,3.843-5.102,5.103
	c-2.143,1.259-4.473,1.888-6.992,1.888s-4.849-0.629-6.992-1.888c-2.142-1.26-3.843-2.96-5.102-5.103
	c-1.259-2.143-1.889-4.473-1.889-6.992s0.63-4.849,1.889-6.992c1.259-2.142,2.96-3.842,5.102-5.102
	C11.66,1.674,13.99,1.044,16.509,1.044z M16.509,2.849c-2.218,0-4.257,0.545-6.118,1.635c-1.86,1.09-3.335,2.565-4.425,4.426
	s-1.635,3.899-1.635,6.117s0.545,4.257,1.635,6.118c1.09,1.86,2.565,3.335,4.425,4.425c1.861,1.09,3.9,1.635,6.118,1.635
	s4.257-0.545,6.118-1.635c1.86-1.09,3.335-2.564,4.425-4.425c1.09-1.861,1.635-3.9,1.635-6.118s-0.545-4.256-1.635-6.117
	s-2.575-3.336-4.454-4.426C20.719,3.394,18.689,2.849,16.509,2.849z M16.959,18.409c0.188,0,0.348-0.065,0.479-0.197
	c0.131-0.131,0.197-0.292,0.197-0.479l0,0c0-0.489,0.169-0.939,0.507-1.354c0.226-0.226,0.658-0.545,1.297-0.958
	c0.827-0.526,1.41-0.996,1.748-1.41c0.526-0.639,0.79-1.428,0.79-2.368c0-1.354-0.526-2.443-1.58-3.27
	c-1.052-0.828-2.349-1.241-3.89-1.241c-1.203,0-2.236,0.227-3.101,0.677c-0.714,0.414-1.41,1.033-2.086,1.86
	c-0.113,0.151-0.15,0.32-0.113,0.508s0.132,0.338,0.282,0.451l0.733,0.508c0.15,0.112,0.319,0.15,0.507,0.112
	c0.188-0.038,0.32-0.112,0.395-0.226c0.451-0.563,0.93-0.977,1.438-1.24c0.508-0.263,1.156-0.396,1.945-0.396
	c1.052,0,1.86,0.245,2.424,0.733c0.527,0.414,0.79,0.921,0.79,1.522c0,0.488-0.188,0.921-0.564,1.296
	c-0.188,0.226-0.601,0.545-1.24,0.959c-0.827,0.526-1.41,0.977-1.748,1.353c-0.526,0.676-0.789,1.503-0.789,2.481l0,0
	c0,0.188,0.066,0.348,0.197,0.479c0.131,0.132,0.291,0.197,0.479,0.197H16.959z M16.509,19.763c0.451,0,0.827,0.15,1.127,0.451
	c0.301,0.301,0.452,0.677,0.452,1.127c0,0.452-0.151,0.827-0.452,1.127c-0.301,0.301-0.677,0.452-1.127,0.452
	s-0.827-0.151-1.127-0.452c-0.301-0.3-0.452-0.676-0.452-1.127c0-0.451,0.151-0.827,0.452-1.127
	C15.682,19.913,16.058,19.763,16.509,19.763z"/>
</svg>
