<?xml version="1.0" encoding="utf-8"?>
<!-- Generator: Adobe Illustrator 15.0.0, SVG Export Plug-In . SVG Version: 6.00 Build 0)  -->
<!DOCTYPE svg PUBLIC "-//W3C//DTD SVG 1.1//EN" "http://www.w3.org/Graphics/SVG/1.1/DTD/svg11.dtd">
<svg version="1.1" id="Capa_1" xmlns="http://www.w3.org/2000/svg" xmlns:xlink="http://www.w3.org/1999/xlink" x="0px" y="0px"
	 width="102.667px" height="29.333px" viewBox="0 0 102.667 29.333" enable-background="new 0 0 102.667 29.333"
	 xml:space="preserve">
<g>
	<defs>
		<rect id="SVGID_1_" x="0" width="101.85" height="28.309"/>
	</defs>
	<clipPath id="SVGID_2_">
		<use xlink:href="#SVGID_1_"  overflow="visible"/>
	</clipPath>
	<path clip-path="url(#SVGID_2_)" fill="#FFFFFF" d="M49.156,14.303c-0.405,0-0.736-0.147-0.995-0.443
		c-0.26-0.295-0.389-0.707-0.389-1.235s0.129-0.938,0.389-1.229c0.259-0.29,0.59-0.435,0.995-0.435c0.404,0,0.735,0.145,0.994,0.435
		c0.259,0.29,0.389,0.7,0.389,1.229s-0.13,0.94-0.389,1.235C49.891,14.155,49.56,14.303,49.156,14.303 M49.156,17.039
		c0.953,0,1.805-0.189,2.557-0.567c0.75-0.378,1.337-0.902,1.756-1.57c0.42-0.669,0.63-1.428,0.63-2.277s-0.21-1.609-0.63-2.277
		c-0.419-0.669-1.006-1.188-1.756-1.562c-0.752-0.373-1.604-0.56-2.557-0.56c-0.944,0-1.791,0.187-2.542,0.56
		c-0.752,0.374-1.34,0.894-1.765,1.562c-0.425,0.668-0.637,1.428-0.637,2.277s0.212,1.608,0.637,2.277
		c0.425,0.668,1.013,1.192,1.765,1.57C47.365,16.85,48.212,17.039,49.156,17.039 M39.207,17.039c0.942,0,1.746-0.13,2.409-0.389
		s1.161-0.606,1.492-1.042c0.332-0.435,0.498-0.917,0.498-1.445c0-0.694-0.184-1.229-0.552-1.602
		c-0.368-0.373-0.793-0.627-1.275-0.762c-0.482-0.134-1.07-0.243-1.764-0.326c-0.446-0.052-0.772-0.105-0.98-0.163
		c-0.207-0.057-0.31-0.152-0.31-0.288c0-0.269,0.383-0.403,1.15-0.403c0.891,0,1.71,0.207,2.456,0.622l0.964-2.317
		c-0.435-0.229-0.961-0.401-1.578-0.521c-0.617-0.118-1.246-0.179-1.889-0.179c-0.922,0-1.712,0.129-2.37,0.389
		c-0.659,0.26-1.153,0.606-1.485,1.042c-0.332,0.435-0.497,0.928-0.497,1.477c0,0.694,0.183,1.228,0.551,1.601
		c0.368,0.373,0.796,0.625,1.283,0.754c0.487,0.131,1.078,0.236,1.772,0.319c0.456,0.052,0.785,0.104,0.987,0.155
		c0.202,0.052,0.303,0.145,0.303,0.28c0,0.135-0.08,0.235-0.241,0.303c-0.16,0.067-0.443,0.101-0.847,0.101
		c-0.508,0-1.031-0.066-1.57-0.202c-0.539-0.135-1.005-0.32-1.399-0.56L35.351,16.2c0.435,0.248,1.005,0.45,1.71,0.605
		S38.481,17.039,39.207,17.039 M34.154,14.147c-0.228,0.155-0.492,0.233-0.793,0.233c-0.217,0-0.394-0.073-0.528-0.218
		c-0.135-0.146-0.202-0.348-0.202-0.606v-2.145h1.741V8.847h-1.741V6.468h-3.514v7.12c0,1.15,0.321,2.013,0.964,2.588
		c0.643,0.576,1.56,0.863,2.752,0.863c0.912,0,1.632-0.15,2.161-0.451L34.154,14.147z M25.402,9.297V8.38H22.06v8.504h3.513v-3.778
		c0-1.223,0.601-1.834,1.803-1.834c0.239,0,0.498,0.021,0.778,0.062V8.225C26.941,8.225,26.024,8.582,25.402,9.297 M16.354,10.619
		c0.311,0,0.578,0.08,0.801,0.24c0.223,0.161,0.381,0.376,0.474,0.646l-2.72,0.528c0.051-0.467,0.204-0.818,0.458-1.058
		C15.621,10.738,15.95,10.619,16.354,10.619 M16.712,14.442c-0.788,0-1.311-0.249-1.57-0.745l5.814-1.119
		c0-0.912-0.207-1.697-0.622-2.356c-0.415-0.658-0.974-1.155-1.679-1.492c-0.705-0.337-1.477-0.505-2.316-0.505
		c-0.923,0-1.754,0.187-2.495,0.56c-0.741,0.374-1.324,0.894-1.749,1.562c-0.425,0.668-0.637,1.428-0.637,2.277
		c0,0.84,0.212,1.596,0.637,2.27c0.425,0.674,1.026,1.2,1.803,1.578c0.777,0.378,1.679,0.567,2.705,0.567
		c1.627,0,2.866-0.456,3.716-1.368l-1.835-1.851c-0.301,0.229-0.578,0.39-0.832,0.482C17.398,14.396,17.085,14.442,16.712,14.442
		 M5.814,14.318H3.607v-1.71h2.207c0.809,0,1.213,0.285,1.213,0.855S6.623,14.318,5.814,14.318 M5.317,8.566
		c0.798,0,1.197,0.27,1.197,0.809s-0.399,0.809-1.197,0.809h-1.71V8.566H5.317z M8.706,11.193c0.497-0.249,0.873-0.574,1.127-0.979
		c0.254-0.405,0.381-0.86,0.381-1.368c0-0.861-0.371-1.55-1.112-2.068C8.361,6.261,7.265,6.002,5.814,6.002H0v10.882h6.125
		c1.493,0,2.633-0.262,3.42-0.785c0.788-0.523,1.182-1.262,1.182-2.216c0-0.642-0.176-1.191-0.529-1.647
		C9.846,11.78,9.348,11.433,8.706,11.193"/>
	<path clip-path="url(#SVGID_2_)" fill="#FFFFFF" d="M101.837,15.667c-0.009-0.065-0.037-0.141-0.087-0.225h-0.374
		c-0.05,0-0.158,0.062-0.324,0.187c-0.167,0.125-0.362,0.268-0.587,0.425c-0.225,0.158-0.457,0.32-0.698,0.486
		s-0.462,0.299-0.661,0.399c-0.15,0.084-0.283,0.146-0.4,0.187c-0.115,0.042-0.232,0.071-0.348,0.088
		c-0.117,0.033-0.238,0.062-0.363,0.088c-0.123,0.024-0.228,0.036-0.311,0.036c-0.267,0-0.529-0.065-0.785-0.198
		c-0.259-0.134-0.5-0.305-0.725-0.513s-0.42-0.444-0.586-0.711c-0.166-0.266-0.291-0.54-0.374-0.822
		c-0.067-0.184-0.101-0.379-0.101-0.587V14.07c0-0.05,0.008-0.175,0.025-0.374c0.016-0.2,0.037-0.42,0.062-0.661
		c0.024-0.241,0.058-0.478,0.1-0.711c0.041-0.233,0.096-0.416,0.162-0.549c0.15-0.399,0.324-0.744,0.523-1.035
		c0.201-0.291,0.416-0.553,0.649-0.786c0.233-0.232,0.478-0.453,0.735-0.661s0.512-0.428,0.762-0.661
		c0.116-0.116,0.191-0.24,0.225-0.375c0.032-0.133,0.049-0.24,0.049-0.323c0-0.283-0.121-0.479-0.361-0.586
		c-0.241-0.108-0.503-0.162-0.785-0.162c-0.084,0-0.15,0.004-0.2,0.012c-0.05,0.009-0.092,0.013-0.125,0.013
		c-0.183,0.083-0.378,0.191-0.586,0.324s-0.407,0.279-0.599,0.437c-0.191,0.158-0.366,0.316-0.524,0.474
		C95.069,8.604,94.94,8.74,94.84,8.856c-0.167,0.2-0.3,0.44-0.4,0.724c-0.099,0.283-0.19,0.523-0.273,0.724
		c-0.051,0.116-0.092,0.266-0.125,0.448c-0.033,0.184-0.075,0.37-0.124,0.562c-0.05,0.191-0.121,0.375-0.212,0.549
		c-0.092,0.175-0.229,0.321-0.412,0.437l-0.1-0.175c0.232-0.897,0.448-1.762,0.648-2.594c0.199-0.832,0.411-1.68,0.637-2.545
		c0.223-0.865,0.469-1.767,0.735-2.707c0.267-0.939,0.59-1.974,0.974-3.106c0.032-0.083,0.057-0.202,0.074-0.36
		c0.016-0.158,0.033-0.296,0.051-0.412c-0.018-0.05-0.068-0.101-0.15-0.15c-0.084-0.05-0.176-0.091-0.275-0.125
		c-0.1-0.033-0.195-0.062-0.286-0.087C95.509,0.013,95.448,0,95.413,0c-0.098,0-0.248,0.046-0.448,0.138
		c-0.199,0.092-0.315,0.229-0.349,0.411c-0.033,0.083-0.08,0.171-0.137,0.263c-0.06,0.091-0.097,0.178-0.113,0.262
		c-0.299,1.297-0.623,2.565-0.973,3.804c-0.35,1.239-0.666,2.574-0.947,4.004c-0.101,0.483-0.226,1.016-0.375,1.598
		s-0.295,1.201-0.437,1.857c-0.142,0.657-0.263,1.335-0.362,2.033c-0.1,0.699-0.15,1.406-0.15,2.121c0,0.05-0.008,0.146-0.024,0.287
		s-0.024,0.304-0.024,0.486c0,0.184,0.008,0.365,0.024,0.549c0.017,0.183,0.06,0.341,0.125,0.474c0.101,0.2,0.196,0.337,0.287,0.412
		s0.183,0.125,0.274,0.15c0.092,0.024,0.179,0.027,0.263,0.012c0.083-0.017,0.174-0.025,0.274-0.025
		c0.115,0,0.232-0.021,0.349-0.062c0.116-0.042,0.216-0.179,0.3-0.412c0.083-0.233,0.12-0.482,0.111-0.748
		c-0.008-0.266-0.004-0.516,0.013-0.749c0-0.1,0.004-0.232,0.013-0.399c0.008-0.166,0.016-0.341,0.025-0.523
		c0.008-0.184,0.016-0.349,0.025-0.499c0.008-0.149,0.028-0.266,0.062-0.349c0.299,0.482,0.569,0.936,0.812,1.359
		c0.24,0.424,0.502,0.802,0.785,1.135c0.282,0.333,0.603,0.604,0.961,0.812c0.357,0.207,0.801,0.32,1.334,0.336
		c0.5,0.017,0.989-0.062,1.473-0.237c0.482-0.174,0.964-0.402,1.447-0.686c0.115-0.066,0.211-0.158,0.287-0.274
		c0.073-0.116,0.152-0.208,0.236-0.274c0.249-0.166,0.527-0.361,0.835-0.586s0.462-0.486,0.462-0.786
		C101.85,15.809,101.846,15.733,101.837,15.667 M85.86,10.44c-0.018,0.175-0.043,0.371-0.076,0.587
		c-0.032,0.216-0.074,0.432-0.125,0.648c-0.049,0.217-0.107,0.398-0.174,0.549c-0.149,0.282-0.357,0.661-0.623,1.135
		c-0.267,0.474-0.574,0.965-0.924,1.472c-0.349,0.508-0.728,0.99-1.135,1.447c-0.408,0.458-0.828,0.811-1.26,1.06l-0.025-0.424
		c0-0.216,0.092-0.574,0.275-1.073c0.182-0.498,0.395-1.014,0.636-1.546c0.241-0.531,0.474-1.022,0.698-1.472
		s0.369-0.724,0.438-0.824c0.115-0.182,0.262-0.398,0.436-0.647c0.175-0.25,0.354-0.503,0.537-0.762
		c0.183-0.258,0.369-0.507,0.561-0.747c0.191-0.241,0.354-0.445,0.487-0.612c0,0.149,0.05,0.312,0.149,0.487
		c0.1,0.174,0.149,0.312,0.149,0.41C85.884,10.162,85.875,10.267,85.86,10.44 M90.973,15.542h-0.148
		c-0.018,0-0.043,0.01-0.075,0.025c-0.533,0.383-1.085,0.707-1.659,0.973c-0.574,0.267-1.102,0.449-1.584,0.549
		c-0.084-0.083-0.143-0.149-0.176-0.199c-0.033-0.051-0.059-0.092-0.074-0.125c-0.033-0.1-0.062-0.225-0.087-0.374l-0.075-0.449
		c-0.025-0.149-0.046-0.282-0.062-0.399c-0.017-0.115-0.024-0.199-0.024-0.249c0-0.083,0.021-0.212,0.062-0.387
		s0.062-0.337,0.062-0.487c0-0.364,0.004-0.701,0.013-1.01c0.009-0.308,0.037-0.624,0.087-0.948c0.051-0.323,0.133-0.677,0.25-1.06
		c0.116-0.383,0.274-0.824,0.475-1.322c0.033-0.083,0.066-0.196,0.099-0.337c0.034-0.141,0.063-0.287,0.088-0.437
		c0.025-0.15,0.046-0.282,0.062-0.399c0.018-0.116,0.025-0.2,0.025-0.249c0-0.233-0.05-0.416-0.15-0.549
		c-0.133-0.166-0.319-0.262-0.561-0.287c-0.24-0.025-0.395-0.054-0.461-0.088c-0.15-0.099-0.262-0.188-0.337-0.261
		c-0.075-0.075-0.149-0.139-0.226-0.188c-0.074-0.049-0.161-0.087-0.262-0.112c-0.1-0.024-0.24-0.036-0.424-0.036
		c-0.1,0-0.232,0.012-0.398,0.036c-0.166,0.025-0.291,0.071-0.375,0.138c-0.217,0.184-0.49,0.504-0.822,0.961
		c-0.333,0.457-0.688,0.994-1.061,1.608c-0.375,0.615-0.748,1.272-1.123,1.972c-0.375,0.697-0.707,1.389-0.998,2.069
		c-0.291,0.684-0.527,1.323-0.711,1.921c-0.183,0.6-0.266,1.099-0.25,1.497c0,0.15,0.051,0.309,0.15,0.475
		c0.1,0.167,0.229,0.32,0.387,0.462c0.157,0.141,0.34,0.253,0.549,0.337c0.207,0.083,0.42,0.124,0.637,0.124
		c0.398,0,0.77-0.129,1.109-0.386c0.34-0.259,0.662-0.574,0.961-0.948c0.299-0.375,0.582-0.77,0.848-1.186
		c0.266-0.415,0.523-0.773,0.773-1.072c0.051,0.383,0.075,0.744,0.075,1.085s0.075,0.67,0.224,0.985
		c0.066,0.184,0.18,0.346,0.338,0.486s0.328,0.271,0.511,0.387c0.183,0.116,0.375,0.204,0.573,0.263
		c0.201,0.058,0.375,0.087,0.525,0.087c0.115,0,0.252-0.009,0.411-0.025c0.158-0.016,0.304-0.033,0.437-0.05
		c0.033,0,0.199-0.079,0.498-0.237c0.301-0.158,0.625-0.356,0.974-0.599c0.351-0.241,0.665-0.507,0.948-0.798
		s0.424-0.569,0.424-0.836C91.422,15.659,91.274,15.542,90.973,15.542 M81.094,15.393l-0.35-0.025c-0.133,0.101-0.262,0.2-0.387,0.3
		c-0.125,0.101-0.211,0.184-0.262,0.249c-0.05,0.05-0.162,0.162-0.337,0.337c-0.174,0.176-0.386,0.354-0.636,0.536
		c-0.249,0.185-0.516,0.347-0.799,0.487c-0.282,0.141-0.558,0.204-0.822,0.187c-0.333-0.016-0.592-0.166-0.773-0.448
		c-0.184-0.283-0.312-0.607-0.388-0.974c-0.074-0.365-0.112-0.723-0.112-1.072s0.008-0.607,0.025-0.773
		c0.018-0.233,0.054-0.52,0.111-0.861c0.06-0.341,0.125-0.697,0.201-1.072c0.074-0.374,0.157-0.739,0.248-1.098
		c0.092-0.357,0.188-0.67,0.287-0.936c0.051-0.184,0.129-0.403,0.237-0.661s0.216-0.511,0.325-0.761
		c0.107-0.249,0.199-0.466,0.273-0.648c0.075-0.183,0.112-0.291,0.112-0.325c0.034-0.148-0.037-0.291-0.212-0.424
		c-0.174-0.133-0.37-0.208-0.586-0.224c-0.1,0-0.246,0.012-0.438,0.037c-0.19,0.024-0.311,0.079-0.361,0.162
		c-0.232,0.433-0.448,0.919-0.648,1.46c-0.199,0.54-0.383,1.109-0.549,1.709c-0.166,0.598-0.303,1.196-0.411,1.796
		c-0.108,0.599-0.179,1.164-0.212,1.695c-0.018,0.267-0.021,0.559-0.014,0.873c0.009,0.316,0.029,0.624,0.062,0.923
		c0.034,0.301,0.088,0.578,0.163,0.837c0.074,0.258,0.162,0.47,0.263,0.636c0.348,0.565,0.73,0.948,1.146,1.147s0.765,0.3,1.048,0.3
		c0.216,0,0.399-0.025,0.549-0.075c0.582-0.166,1.056-0.378,1.423-0.637c0.364-0.257,0.715-0.586,1.047-0.984
		c0.084-0.101,0.149-0.212,0.199-0.337c0.051-0.125,0.092-0.221,0.125-0.287c0.084-0.116,0.17-0.22,0.262-0.312
		c0.092-0.091,0.138-0.178,0.138-0.262L81.094,15.393z M79.323,4.304c-0.217-0.075-0.474-0.12-0.773-0.138
		c-0.083-0.016-0.221-0.021-0.411-0.012c-0.192,0.008-0.354,0.046-0.487,0.112c-0.082,0.383,0,0.715,0.25,0.998
		c0.25,0.282,0.524,0.432,0.823,0.448c0.15,0,0.324-0.037,0.524-0.112c0.199-0.074,0.316-0.271,0.349-0.586
		C79.63,4.615,79.54,4.378,79.323,4.304 M68.995,10.44c-0.016,0.175-0.041,0.371-0.074,0.587c-0.034,0.216-0.075,0.432-0.125,0.648
		c-0.051,0.217-0.107,0.398-0.174,0.549c-0.15,0.282-0.358,0.661-0.625,1.135c-0.266,0.474-0.573,0.965-0.922,1.472
		c-0.351,0.508-0.729,0.99-1.135,1.447c-0.408,0.458-0.828,0.811-1.261,1.06l-0.024-0.424c0-0.216,0.09-0.574,0.273-1.073
		c0.184-0.498,0.395-1.014,0.637-1.546c0.24-0.531,0.473-1.022,0.698-1.472c0.224-0.449,0.37-0.724,0.437-0.824
		c0.117-0.182,0.262-0.398,0.437-0.647c0.175-0.25,0.353-0.503,0.537-0.762c0.183-0.258,0.369-0.507,0.562-0.747
		c0.19-0.241,0.353-0.445,0.485-0.612c0,0.149,0.05,0.312,0.149,0.487c0.101,0.174,0.15,0.312,0.15,0.41
		C69.02,10.162,69.011,10.267,68.995,10.44 M74.11,15.542h-0.15c-0.016,0-0.041,0.01-0.075,0.025
		c-0.532,0.383-1.085,0.707-1.659,0.973c-0.572,0.267-1.102,0.449-1.584,0.549c-0.083-0.083-0.141-0.149-0.174-0.199
		c-0.034-0.051-0.059-0.092-0.075-0.125c-0.034-0.1-0.063-0.225-0.088-0.374s-0.049-0.3-0.073-0.449
		c-0.025-0.149-0.047-0.282-0.063-0.399c-0.017-0.115-0.025-0.199-0.025-0.249c0-0.083,0.021-0.212,0.063-0.387
		c0.041-0.175,0.062-0.337,0.062-0.487c0-0.364,0.005-0.701,0.013-1.01c0.008-0.308,0.037-0.624,0.088-0.948
		c0.05-0.323,0.133-0.677,0.248-1.06c0.117-0.383,0.275-0.824,0.475-1.322c0.033-0.083,0.066-0.196,0.1-0.337
		s0.062-0.287,0.088-0.437c0.024-0.15,0.045-0.282,0.062-0.399c0.016-0.116,0.025-0.2,0.025-0.249c0-0.233-0.051-0.416-0.15-0.549
		c-0.133-0.166-0.32-0.262-0.561-0.287c-0.242-0.025-0.396-0.054-0.463-0.088c-0.148-0.099-0.262-0.188-0.336-0.261
		c-0.074-0.075-0.15-0.139-0.225-0.188c-0.075-0.049-0.162-0.087-0.262-0.112c-0.101-0.024-0.241-0.036-0.424-0.036
		c-0.101,0-0.233,0.012-0.399,0.036c-0.167,0.025-0.292,0.071-0.375,0.138c-0.216,0.184-0.49,0.504-0.823,0.961
		s-0.686,0.994-1.061,1.608c-0.373,0.615-0.748,1.272-1.122,1.972c-0.374,0.697-0.707,1.389-0.998,2.069
		c-0.291,0.684-0.528,1.323-0.712,1.921c-0.182,0.6-0.264,1.099-0.248,1.497c0,0.15,0.05,0.309,0.15,0.475
		c0.098,0.167,0.228,0.32,0.385,0.462c0.158,0.141,0.342,0.253,0.55,0.337c0.208,0.083,0.42,0.124,0.636,0.124
		c0.398,0,0.77-0.129,1.109-0.386c0.342-0.259,0.662-0.574,0.962-0.948c0.299-0.375,0.581-0.77,0.848-1.186
		c0.267-0.415,0.524-0.773,0.774-1.072c0.049,0.383,0.074,0.744,0.074,1.085s0.074,0.67,0.225,0.985
		c0.066,0.184,0.178,0.346,0.337,0.486c0.158,0.141,0.328,0.271,0.511,0.387c0.184,0.116,0.374,0.204,0.574,0.263
		c0.199,0.058,0.374,0.087,0.523,0.087c0.117,0,0.254-0.009,0.412-0.025c0.157-0.016,0.303-0.033,0.437-0.05
		c0.032,0,0.2-0.079,0.499-0.237s0.624-0.356,0.973-0.599c0.35-0.241,0.665-0.507,0.948-0.798s0.424-0.569,0.424-0.836
		C74.558,15.659,74.409,15.542,74.11,15.542 M60.875,9.355c-0.025,0.449-0.079,0.814-0.162,1.098
		c-0.067,0.166-0.149,0.392-0.249,0.673c-0.1,0.283-0.191,0.509-0.275,0.675c-0.232,0.433-0.498,0.897-0.798,1.396
		s-0.62,0.985-0.961,1.459s-0.702,0.907-1.085,1.298c-0.383,0.392-0.781,0.687-1.197,0.885c0.066-0.78,0.271-1.608,0.611-2.481
		s0.74-1.705,1.197-2.495c0.457-0.789,0.951-1.5,1.484-2.133c0.532-0.632,1.039-1.114,1.522-1.447
		C60.928,8.549,60.899,8.906,60.875,9.355 M63.344,7.722c-0.059-0.191-0.212-0.328-0.462-0.412c-0.099-0.05-0.208-0.066-0.324-0.05
		s-0.216,0.009-0.299-0.024c-0.084-0.017-0.146-0.05-0.187-0.1c-0.043-0.051-0.088-0.101-0.139-0.15
		c-0.049-0.05-0.119-0.095-0.212-0.137c-0.091-0.041-0.228-0.063-0.411-0.063c-0.117,0-0.254,0.013-0.412,0.038
		S60.62,6.877,60.538,6.91c-0.25,0.084-0.532,0.254-0.848,0.512c-0.316,0.259-0.625,0.546-0.924,0.86
		c-0.299,0.316-0.564,0.624-0.798,0.923c-0.233,0.3-0.399,0.533-0.499,0.699c-0.05,0.1-0.129,0.233-0.236,0.399
		c-0.109,0.167-0.222,0.333-0.338,0.499c-0.115,0.166-0.236,0.333-0.361,0.499s-0.221,0.299-0.287,0.398
		c-0.084,0.133-0.184,0.321-0.299,0.562c-0.117,0.241-0.229,0.499-0.338,0.773c-0.107,0.274-0.216,0.54-0.324,0.798
		c-0.107,0.258-0.195,0.479-0.262,0.661c-0.183,0.434-0.328,0.854-0.437,1.26c-0.108,0.408-0.162,0.854-0.162,1.335
		c0,0.433,0.129,0.777,0.388,1.035c0.258,0.258,0.643,0.388,1.159,0.388c0.399,0,0.827-0.166,1.285-0.499
		c0.457-0.333,0.897-0.729,1.321-1.186c0.425-0.457,0.812-0.915,1.16-1.372c0.35-0.458,0.615-0.811,0.799-1.061l-0.174,3.867
		c-0.233,1.729-0.549,3.242-0.948,4.541c-0.399,1.297-0.89,2.253-1.472,2.868c-0.316,0.332-0.687,0.619-1.11,0.86
		c-0.425,0.241-0.878,0.337-1.36,0.287c-0.299-0.033-0.549-0.183-0.748-0.449c-0.199-0.266-0.365-0.557-0.499-0.873
		c-0.133-0.315-0.241-0.599-0.325-0.848c-0.082-0.25-0.174-0.374-0.273-0.374c-0.116,0-0.217,0.05-0.299,0.148
		c-0.084,0.101-0.15,0.222-0.2,0.362c-0.05,0.142-0.083,0.287-0.101,0.438c-0.016,0.148-0.024,0.281-0.024,0.398
		c0,0.116,0.028,0.282,0.088,0.499c0.058,0.216,0.142,0.44,0.249,0.673c0.107,0.233,0.236,0.453,0.387,0.661
		c0.149,0.208,0.316,0.354,0.499,0.438c0.267,0.183,0.544,0.303,0.835,0.361s0.592,0.07,0.899,0.037
		c0.307-0.033,0.618-0.1,0.935-0.199s0.624-0.217,0.924-0.35c0.416-0.283,0.789-0.606,1.123-0.973
		c0.332-0.366,0.618-0.736,0.859-1.11s0.441-0.723,0.6-1.048c0.157-0.324,0.278-0.586,0.361-0.785
		c0.217-0.616,0.412-1.327,0.586-2.133c0.176-0.807,0.325-1.647,0.449-2.521c0.125-0.873,0.225-1.733,0.3-2.582
		c0.074-0.848,0.128-1.621,0.162-2.319c0-0.283,0.008-0.607,0.024-0.974c0.017-0.365,0.037-0.739,0.062-1.123
		c0.025-0.382,0.059-0.752,0.1-1.109s0.104-0.661,0.188-0.911c0.05-0.149,0.116-0.328,0.2-0.536c0.083-0.208,0.17-0.412,0.262-0.611
		c0.091-0.199,0.17-0.378,0.237-0.536c0.066-0.157,0.099-0.254,0.099-0.286C63.431,8.066,63.403,7.912,63.344,7.722"/>
</g>
</svg>
