<?xml version="1.0" encoding="utf-8"?>
<!-- Generator: Adobe Illustrator 15.0.0, SVG Export Plug-In . SVG Version: 6.00 Build 0)  -->
<!DOCTYPE svg PUBLIC "-//W3C//DTD SVG 1.1//EN" "http://www.w3.org/Graphics/SVG/1.1/DTD/svg11.dtd">
<svg version="1.1" id="Capa_1" xmlns="http://www.w3.org/2000/svg" xmlns:xlink="http://www.w3.org/1999/xlink" x="0px" y="0px"
	 width="33.189px" height="30.058px" viewBox="0 0 33.189 30.058" enable-background="new 0 0 33.189 30.058" xml:space="preserve">
<g>
	<defs>
		<rect id="SVGID_1_" x="250" y="27.571" width="51.168" height="75.429"/>
	</defs>
	<clipPath id="SVGID_2_">
		<use xlink:href="#SVGID_1_"  overflow="visible"/>
	</clipPath>
	<path clip-path="url(#SVGID_2_)" fill="#1A171B" d="M291.926,35.021c0.659,0.153,0.932,0.693,1.95,0.487
		c0.409-0.565,0.644-1.307,0.487-2.438C293.206,33.375,292.094,33.727,291.926,35.021 M295.339,28.195
		c0.179,0.829-0.38,0.92-0.976,0.975c2.336,0.57,1.976,3.354,2.926,7.313c2.381-0.193,2.408-1.987,3.412-2.438
		c1.992,7.857-2.539,17.517-10.725,17.063c-4.478-0.247-4.949-3.619-8.775-5.362c-1.184,0.594,0.997,1.881,0.974,2.925
		c-8.308,5.18-19.073,7.901-25.838,14.625h-4.387c-0.519-1.431-1.944-1.956-1.95-3.899c12.2-10.552,25.829-19.673,38.514-29.738
		c0.09-0.415-0.19-0.46-0.488-0.488C290.729,28.211,293.534,26.714,295.339,28.195"/>
	<path clip-path="url(#SVGID_2_)" fill="#1A171B" d="M265.014,103c-0.365-8.592-0.7-17.256-0.875-26.053
		c-0.116-5.777,0.604-13.479-5.363-10.727C257.9,76.442,258.95,91.625,259.723,103H265.014z"/>
</g>
<path fill="#FFFFFF" d="M28.308,4.803c0.123-0.163,0.286-0.245,0.491-0.245s0.368,0.082,0.491,0.245l0.736,0.676
	c0.123,0.163,0.184,0.348,0.184,0.552c0,0.205-0.062,0.368-0.184,0.491L11.615,24.933c-0.164,0.164-0.338,0.246-0.522,0.246
	s-0.358-0.082-0.521-0.246L3.269,17.63c-0.123-0.123-0.184-0.286-0.184-0.491c0-0.204,0.062-0.389,0.184-0.553l0.736-0.675
	c0.123-0.163,0.287-0.245,0.491-0.245s0.368,0.082,0.491,0.245l6.076,6.076L28.308,4.803z"/>
</svg>
