<?xml version="1.0" encoding="utf-8"?>
<!-- Generator: Adobe Illustrator 15.0.0, SVG Export Plug-In . SVG Version: 6.00 Build 0)  -->
<!DOCTYPE svg PUBLIC "-//W3C//DTD SVG 1.1//EN" "http://www.w3.org/Graphics/SVG/1.1/DTD/svg11.dtd">
<svg version="1.1" id="Capa_1" xmlns="http://www.w3.org/2000/svg" xmlns:xlink="http://www.w3.org/1999/xlink" x="0px" y="0px"
	 width="33.189px" height="30.058px" viewBox="0 0 33.189 30.058" enable-background="new 0 0 33.189 30.058" xml:space="preserve">
<g>
	<defs>
		<rect id="SVGID_1_" x="250" y="27.571" width="51.168" height="75.429"/>
	</defs>
	<clipPath id="SVGID_2_">
		<use xlink:href="#SVGID_1_"  overflow="visible"/>
	</clipPath>
	<path clip-path="url(#SVGID_2_)" fill="#1A171B" d="M291.926,35.021c0.659,0.153,0.932,0.693,1.95,0.487
		c0.409-0.565,0.644-1.307,0.487-2.438C293.206,33.375,292.094,33.727,291.926,35.021 M295.339,28.195
		c0.179,0.829-0.38,0.92-0.976,0.975c2.336,0.57,1.976,3.354,2.926,7.313c2.381-0.193,2.408-1.987,3.412-2.438
		c1.992,7.857-2.539,17.517-10.725,17.063c-4.478-0.247-4.949-3.619-8.775-5.362c-1.184,0.594,0.997,1.881,0.974,2.925
		c-8.308,5.18-19.073,7.901-25.838,14.625h-4.387c-0.519-1.431-1.944-1.956-1.95-3.899c12.2-10.552,25.829-19.673,38.514-29.738
		c0.09-0.415-0.19-0.46-0.488-0.488C290.729,28.211,293.534,26.714,295.339,28.195"/>
	<path clip-path="url(#SVGID_2_)" fill="#1A171B" d="M265.014,103c-0.365-8.592-0.7-17.256-0.875-26.053
		c-0.116-5.777,0.604-13.479-5.363-10.727C257.9,76.442,258.95,91.625,259.723,103H265.014z"/>
</g>
<path fill="#FFFFFF" d="M26.533,17.7c1.572,0.45,2.77,1.348,3.593,2.695c0.636,1.048,0.955,2.153,0.955,3.312v1.572
	c0,0.974-0.355,1.816-1.066,2.527s-1.554,1.066-2.527,1.066H5.927c-0.974,0-1.816-0.355-2.527-1.066s-1.066-1.554-1.066-2.527
	v-1.572c0-1.159,0.319-2.283,0.955-3.368c0.823-1.311,2.021-2.19,3.593-2.64l2.751-0.786c-1.123-1.161-1.908-2.49-2.357-3.986
	c-0.3-0.974-0.449-1.947-0.449-2.92c0-1.797,0.439-3.453,1.319-4.968c0.879-1.516,2.077-2.714,3.594-3.594
	c1.516-0.879,3.171-1.319,4.968-1.319c1.797,0,3.453,0.44,4.969,1.319c1.517,0.88,2.714,2.078,3.594,3.594
	c0.88,1.516,1.319,3.171,1.319,4.968c0,0.974-0.149,1.947-0.449,2.92c-0.449,1.497-1.235,2.825-2.357,3.986L26.533,17.7z
	 M29.284,25.28v-1.572c0-0.973-0.299-1.862-0.898-2.667c-0.599-0.805-1.385-1.356-2.358-1.656l-3.929-1.124
	c-1.647,1.086-3.444,1.629-5.391,1.629c-1.946,0-3.743-0.543-5.391-1.629l-3.929,1.124c-0.973,0.299-1.76,0.851-2.358,1.656
	c-0.6,0.805-0.898,1.694-0.898,2.667v1.572c0,0.487,0.178,0.908,0.534,1.263c0.355,0.356,0.777,0.534,1.263,0.534h21.56
	c0.486,0,0.908-0.178,1.263-0.534C29.106,26.188,29.284,25.767,29.284,25.28z M16.707,1.923c-1.459,0-2.807,0.365-4.042,1.095
	c-1.235,0.73-2.218,1.712-2.947,2.948c-0.73,1.234-1.095,2.583-1.095,4.042c0,1.46,0.364,2.809,1.095,4.043
	c0.729,1.235,1.712,2.218,2.947,2.948c1.235,0.729,2.583,1.095,4.042,1.095c1.46,0,2.808-0.366,4.043-1.095
	c1.235-0.73,2.218-1.712,2.947-2.948c0.73-1.235,1.095-2.583,1.095-4.043c0-1.459-0.364-2.807-1.095-4.042
	c-0.729-1.236-1.712-2.218-2.947-2.948C19.514,2.288,18.167,1.923,16.707,1.923z"/>
</svg>
